<svg width="31" height="31" viewBox="0 0 31 31" fill="none" xmlns="http://www.w3.org/2000/svg">
<path d="M16.448 19.9901V14.0151C16.448 13.6836 16.3163 13.3656 16.0819 13.1312C15.8475 12.8968 15.5295 12.7651 15.198 12.7651C14.8665 12.7651 14.5485 12.8968 14.3141 13.1312C14.0797 13.3656 13.948 13.6836 13.948 14.0151V19.9901C13.5702 20.2082 13.256 20.5214 13.0367 20.8986C12.8174 21.2758 12.7006 21.7038 12.698 22.1401C12.698 22.8031 12.9614 23.439 13.4302 23.9078C13.8991 24.3767 14.535 24.6401 15.198 24.6401C15.861 24.6401 16.4969 24.3767 16.9658 23.9078C17.4346 23.439 17.698 22.8031 17.698 22.1401C17.6954 21.7038 17.5786 21.2758 17.3593 20.8986C17.14 20.5214 16.8258 20.2082 16.448 19.9901ZM20.823 17.1401V7.76508C20.823 6.27323 20.2304 4.84249 19.1755 3.7876C18.1206 2.73271 16.6898 2.14008 15.198 2.14008C13.7062 2.14008 12.2754 2.73271 11.2205 3.7876C10.1656 4.84249 9.573 6.27323 9.573 7.76508V17.1401C8.70906 18.1191 8.11566 19.3067 7.85152 20.5854C7.58737 21.8641 7.66163 23.1896 8.06695 24.4308C8.47226 25.672 9.19459 26.7859 10.1625 27.6622C11.1304 28.5386 12.3103 29.1471 13.5855 29.4276C14.1152 29.5483 14.6551 29.6195 15.198 29.6401C16.6488 29.6468 18.0704 29.2327 19.2905 28.4478C20.5107 27.6628 21.477 26.5409 22.0723 25.2179C22.6677 23.8949 22.8665 22.4276 22.6448 20.9938C22.423 19.5601 21.7902 18.2214 20.823 17.1401ZM18.323 25.9776C17.3284 26.8594 16.0243 27.3101 14.6975 27.2304C13.3707 27.1507 12.1298 26.5471 11.248 25.5526C10.3662 24.558 9.91552 23.2539 9.99522 21.9271C10.0749 20.6002 10.6784 19.3594 11.673 18.4776C11.7911 18.3618 11.8851 18.2238 11.9494 18.0714C12.0138 17.9191 12.0473 17.7555 12.048 17.5901V7.76508C12.048 6.93627 12.3772 6.14142 12.9633 5.55537C13.5493 4.96932 14.3442 4.64008 15.173 4.64008C16.0018 4.64008 16.7967 4.96932 17.3827 5.55537C17.9688 6.14142 18.298 6.93627 18.298 7.76508V17.6901C18.2987 17.8555 18.3322 18.0191 18.3966 18.1714C18.4609 18.3238 18.5549 18.4618 18.673 18.5776C19.1839 19.0712 19.5838 19.668 19.846 20.3282C20.1082 20.9885 20.2267 21.6971 20.1936 22.4067C20.1605 23.1164 19.9765 23.8108 19.654 24.4438C19.3314 25.0767 18.8777 25.6337 18.323 26.0776V25.9776Z" fill="#222222"/>
</svg>
