<svg width="31" height="31" viewBox="0 0 31 31" fill="none" xmlns="http://www.w3.org/2000/svg">
<path d="M7.726 14.6138C7.47877 14.6138 7.2371 14.6871 7.03154 14.8244C6.82597 14.9618 6.66576 15.157 6.57115 15.3854C6.47654 15.6138 6.45178 15.8652 6.50002 16.1076C6.54825 16.3501 6.6673 16.5728 6.84211 16.7477C7.01693 16.9225 7.23966 17.0415 7.48213 17.0898C7.72461 17.138 7.97594 17.1132 8.20435 17.0186C8.43276 16.924 8.62798 16.7638 8.76534 16.5582C8.90269 16.3527 8.976 16.111 8.976 15.8638C8.976 15.5322 8.8443 15.2143 8.60988 14.9799C8.37546 14.7455 8.05752 14.6138 7.726 14.6138ZM22.726 14.6138C22.4788 14.6138 22.2371 14.6871 22.0315 14.8244C21.826 14.9618 21.6658 15.157 21.5711 15.3854C21.4765 15.6138 21.4518 15.8652 21.5 16.1076C21.5482 16.3501 21.6673 16.5728 21.8421 16.7477C22.0169 16.9225 22.2397 17.0415 22.4821 17.0898C22.7246 17.138 22.9759 17.1132 23.2044 17.0186C23.4328 16.924 23.628 16.7638 23.7653 16.5582C23.9027 16.3527 23.976 16.111 23.976 15.8638C23.976 15.5322 23.8443 15.2143 23.6099 14.9799C23.3755 14.7455 23.0575 14.6138 22.726 14.6138ZM25.226 7.11377H5.226C4.23144 7.11377 3.27761 7.50886 2.57435 8.21212C1.87109 8.91538 1.476 9.86921 1.476 10.8638V20.8638C1.476 21.8583 1.87109 22.8122 2.57435 23.5154C3.27761 24.2187 4.23144 24.6138 5.226 24.6138H25.226C26.2206 24.6138 27.1744 24.2187 27.8776 23.5154C28.5809 22.8122 28.976 21.8583 28.976 20.8638V10.8638C28.976 9.86921 28.5809 8.91538 27.8776 8.21212C27.1744 7.50886 26.2206 7.11377 25.226 7.11377ZM26.476 20.8638C26.476 21.1953 26.3443 21.5132 26.1099 21.7477C25.8755 21.9821 25.5575 22.1138 25.226 22.1138H5.226C4.89448 22.1138 4.57653 21.9821 4.34211 21.7477C4.10769 21.5132 3.976 21.1953 3.976 20.8638V10.8638C3.976 10.5322 4.10769 10.2143 4.34211 9.97989C4.57653 9.74547 4.89448 9.61377 5.226 9.61377H25.226C25.5575 9.61377 25.8755 9.74547 26.1099 9.97989C26.3443 10.2143 26.476 10.5322 26.476 10.8638V20.8638ZM15.226 12.1138C14.4843 12.1138 13.7593 12.3337 13.1426 12.7458C12.5259 13.1578 12.0453 13.7435 11.7614 14.4287C11.4776 15.1139 11.4034 15.8679 11.5481 16.5954C11.6927 17.3228 12.0499 17.991 12.5743 18.5154C13.0988 19.0399 13.767 19.397 14.4944 19.5417C15.2218 19.6864 15.9758 19.6121 16.6611 19.3283C17.3463 19.0445 17.932 18.5638 18.344 17.9472C18.7561 17.3305 18.976 16.6055 18.976 15.8638C18.976 14.8692 18.5809 13.9154 17.8776 13.2121C17.1744 12.5089 16.2206 12.1138 15.226 12.1138ZM15.226 17.1138C14.9788 17.1138 14.7371 17.0405 14.5315 16.9031C14.326 16.7658 14.1658 16.5705 14.0711 16.3421C13.9765 16.1137 13.9518 15.8624 14 15.6199C14.0482 15.3774 14.1673 15.1547 14.3421 14.9799C14.5169 14.8051 14.7397 14.686 14.9821 14.6378C15.2246 14.5896 15.4759 14.6143 15.7044 14.7089C15.9328 14.8035 16.128 14.9637 16.2653 15.1693C16.4027 15.3749 16.476 15.6165 16.476 15.8638C16.476 16.1953 16.3443 16.5132 16.1099 16.7477C15.8755 16.9821 15.5575 17.1138 15.226 17.1138Z" fill="#222222"/>
</svg>
