<svg width="117" height="59" viewBox="0 0 117 59" fill="none" xmlns="http://www.w3.org/2000/svg">
<path d="M50.456 -58.3571C37.5724 -56.4035 27.2656 -51.3632 18.169 -42.5329C8.09643 -32.8429 2.47452 -21.8636 0.522464 -8.03205C-0.492604 -0.842756 -0.0241112 6.89355 1.8889 14.5517C4.27041 23.9291 9.30671 32.7594 16.5293 40.2613C26.0553 50.1075 37.1039 55.7339 50.8074 57.6875C62.9101 59.4067 76.0669 56.9061 87.1156 50.7326C88.7162 49.7949 89.9656 48.8181 90.3169 48.1148C91.8395 45.2235 90.2779 42.0195 87.1156 41.5897C85.7101 41.3944 85.0073 41.6288 81.6498 43.348C73.6073 47.4506 67.3217 48.9744 58.4985 48.9353C54.9067 48.9353 51.6272 48.7009 49.519 48.3102C39.8759 46.4347 31.443 42.0586 24.3766 35.221C20.3163 31.3137 18.2081 28.6177 15.4362 23.8118C13.8355 20.9986 13.6012 20.3344 13.6012 18.3808C13.6012 13.0279 16.2951 9.7849 20.7067 9.82397C25.5868 9.90212 31.2478 14.0438 38.1971 22.7178C44.4437 30.4541 50.417 35.807 57.5224 39.8706C60.2163 41.3944 61.3875 41.8632 62.6759 41.8632C64.9402 41.8632 66.658 40.3394 66.9704 38.1123C67.2827 35.8461 66.3457 34.2832 63.9252 33.072C58.2252 30.1416 52.0567 25.1012 47.2937 19.3185C40.6176 11.2696 38.9389 9.47232 36.0108 7.08892C30.6622 2.79097 25.743 0.837352 20.3944 0.837352C16.6855 0.837352 13.9136 1.69694 11.2588 3.61148C10.3608 4.27571 9.54095 4.74458 9.46287 4.62736C9.34575 4.54922 9.26766 2.86911 9.26766 0.954569C9.15054 -11.7439 19.067 -20.8868 29.9985 -18.1518C37.8848 -16.1982 45.7711 -9.79031 53.1889 0.64199C55.6094 4.04128 56.9368 5.1353 58.6156 5.1353C62.1293 5.1353 64.2375 1.42344 62.5197 -1.81956C61.0361 -4.55462 56.5854 -10.1029 52.6423 -14.1664C46.3567 -20.6524 40.4615 -24.5206 33.9026 -26.5523C30.7793 -27.49 24.4156 -27.8026 20.4334 -27.1775L18.4814 -26.904L21.0971 -29.3655C22.8149 -31.0065 24.8451 -32.4132 26.9533 -33.4681C34.2149 -37.1018 39.2122 -37.18 46.0834 -33.7025C53.4622 -29.9907 59.3574 -24.4033 67.8683 -13.0333C77.6676 0.0559063 83.0943 4.66643 91.2149 6.73726C95.119 7.71407 100.311 7.71407 104.177 6.69819C107.846 5.72139 107.69 5.72139 107.339 7.01077C105.387 13.7703 98.6717 18.7715 91.4882 18.8106C86.6471 18.8106 82.5868 17.404 77.043 13.7703C74.3101 11.9729 73.7245 11.7385 72.4361 11.8948C69.469 12.2855 67.6341 15.4113 68.7663 18.1073C69.8204 20.647 77.7457 25.2966 83.9532 27.0158C87.3498 27.9535 94.2991 28.0707 97.4614 27.2502C99.5306 26.7423 99.8039 26.8595 99.0621 28.2661C97.8519 30.5323 100.272 34.0488 103.083 34.0488C105.504 34.0488 106.558 33.2283 108.588 29.829C115.42 18.2636 118.27 4.66643 116.474 -8.03205C115.03 -18.1908 111.321 -27.4119 105.582 -35.1091C102.342 -39.4462 95.4703 -46.0494 91.293 -48.8235C84.5388 -53.3168 76.4964 -56.638 69.0395 -57.9664C64.0032 -58.8651 54.9457 -59.0604 50.456 -58.3571ZM58.4985 -47.2606C62.7539 -45.9322 65.7601 -43.8613 70.6402 -39.0164C73.0998 -36.5548 77.5895 -31.3582 80.6347 -27.49C83.6409 -23.6219 87.3888 -19.2458 88.9895 -17.722C93.8306 -13.1505 98.2813 -11.3532 103.591 -11.783L106.441 -12.0565L106.831 -10.3764C107.066 -9.47773 107.339 -7.75855 107.495 -6.54731L107.768 -4.35926L105.66 -3.4606C100.975 -1.42884 97.5005 -1.03812 93.4402 -2.09307C90.0436 -2.99173 87.6231 -4.47648 84.1094 -7.79762C80.908 -10.8453 79.6587 -12.3691 73.256 -21.0431C67.6341 -28.6622 60.7238 -35.4217 54.3601 -39.4852C50.1437 -42.1812 44.0923 -44.6428 40.4615 -45.1116C39.4074 -45.2679 38.6656 -45.5024 38.8608 -45.6587C39.017 -45.854 41.2813 -46.5182 43.8581 -47.1825C47.9183 -48.2374 49.0505 -48.3937 52.2519 -48.2374C54.5163 -48.1593 56.9368 -47.7686 58.4985 -47.2606ZM80.9471 -44.3693C89.2238 -40.2276 98.2423 -31.2801 102.342 -23.153C103.435 -20.965 103.396 -20.6524 101.873 -20.6524C98.6327 -20.6915 95.3142 -23.6219 87.2717 -33.7416C83.8361 -38.0396 80.0491 -42.5719 78.8389 -43.8613C76.3793 -46.401 76.7306 -46.4792 80.9471 -44.3693Z" fill="#222222"/>
<path d="M50.456 -58.3571C37.5724 -56.4035 27.2656 -51.3632 18.169 -42.5329C8.09643 -32.8429 2.47452 -21.8636 0.522464 -8.03205C-0.492604 -0.842756 -0.0241112 6.89355 1.8889 14.5517C4.27041 23.9291 9.30671 32.7594 16.5293 40.2613C26.0553 50.1075 37.1039 55.7339 50.8074 57.6875C62.9101 59.4067 76.0669 56.9061 87.1156 50.7326C88.7162 49.7949 89.9656 48.8181 90.3169 48.1148C91.8395 45.2235 90.2779 42.0195 87.1156 41.5897C85.7101 41.3944 85.0073 41.6288 81.6498 43.348C73.6073 47.4506 67.3217 48.9744 58.4985 48.9353C54.9067 48.9353 51.6272 48.7009 49.519 48.3102C39.8759 46.4347 31.443 42.0586 24.3766 35.221C20.3163 31.3137 18.2081 28.6177 15.4362 23.8118C13.8355 20.9986 13.6012 20.3344 13.6012 18.3808C13.6012 13.0279 16.2951 9.7849 20.7067 9.82397C25.5868 9.90212 31.2478 14.0438 38.1971 22.7178C44.4437 30.4541 50.417 35.807 57.5224 39.8706C60.2163 41.3944 61.3875 41.8632 62.6759 41.8632C64.9402 41.8632 66.658 40.3394 66.9704 38.1123C67.2827 35.8461 66.3457 34.2832 63.9252 33.072C58.2252 30.1416 52.0567 25.1012 47.2937 19.3185C40.6176 11.2696 38.9389 9.47232 36.0108 7.08892C30.6622 2.79097 25.743 0.837352 20.3944 0.837352C16.6855 0.837352 13.9136 1.69694 11.2588 3.61148C10.3608 4.27571 9.54095 4.74458 9.46287 4.62736C9.34575 4.54922 9.26766 2.86911 9.26766 0.954569C9.15054 -11.7439 19.067 -20.8868 29.9985 -18.1518C37.8848 -16.1982 45.7711 -9.79031 53.1889 0.64199C55.6094 4.04128 56.9368 5.1353 58.6156 5.1353C62.1293 5.1353 64.2375 1.42344 62.5197 -1.81956C61.0361 -4.55462 56.5854 -10.1029 52.6423 -14.1664C46.3567 -20.6524 40.4615 -24.5206 33.9026 -26.5523C30.7793 -27.49 24.4156 -27.8026 20.4334 -27.1775L18.4814 -26.904L21.0971 -29.3655C22.8149 -31.0065 24.8451 -32.4132 26.9533 -33.4681C34.2149 -37.1018 39.2122 -37.18 46.0834 -33.7025C53.4622 -29.9907 59.3574 -24.4033 67.8683 -13.0333C77.6676 0.0559063 83.0943 4.66643 91.2149 6.73726C95.119 7.71407 100.311 7.71407 104.177 6.69819C107.846 5.72139 107.69 5.72139 107.339 7.01077C105.387 13.7703 98.6717 18.7715 91.4882 18.8106C86.6471 18.8106 82.5868 17.404 77.043 13.7703C74.3101 11.9729 73.7245 11.7385 72.4361 11.8948C69.469 12.2855 67.6341 15.4113 68.7663 18.1073C69.8204 20.647 77.7457 25.2966 83.9532 27.0158C87.3498 27.9535 94.2991 28.0707 97.4614 27.2502C99.5306 26.7423 99.8039 26.8595 99.0621 28.2661C97.8519 30.5323 100.272 34.0488 103.083 34.0488C105.504 34.0488 106.558 33.2283 108.588 29.829C115.42 18.2636 118.27 4.66643 116.474 -8.03205C115.03 -18.1908 111.321 -27.4119 105.582 -35.1091C102.342 -39.4462 95.4703 -46.0494 91.293 -48.8235C84.5388 -53.3168 76.4964 -56.638 69.0395 -57.9664C64.0032 -58.8651 54.9457 -59.0604 50.456 -58.3571ZM58.4985 -47.2606C62.7539 -45.9322 65.7601 -43.8613 70.6402 -39.0164C73.0998 -36.5548 77.5895 -31.3582 80.6347 -27.49C83.6409 -23.6219 87.3888 -19.2458 88.9895 -17.722C93.8306 -13.1505 98.2813 -11.3532 103.591 -11.783L106.441 -12.0565L106.831 -10.3764C107.066 -9.47773 107.339 -7.75855 107.495 -6.54731L107.768 -4.35926L105.66 -3.4606C100.975 -1.42884 97.5005 -1.03812 93.4402 -2.09307C90.0436 -2.99173 87.6231 -4.47648 84.1094 -7.79762C80.908 -10.8453 79.6587 -12.3691 73.256 -21.0431C67.6341 -28.6622 60.7238 -35.4217 54.3601 -39.4852C50.1437 -42.1812 44.0923 -44.6428 40.4615 -45.1116C39.4074 -45.2679 38.6656 -45.5024 38.8608 -45.6587C39.017 -45.854 41.2813 -46.5182 43.8581 -47.1825C47.9183 -48.2374 49.0505 -48.3937 52.2519 -48.2374C54.5163 -48.1593 56.9368 -47.7686 58.4985 -47.2606ZM80.9471 -44.3693C89.2238 -40.2276 98.2423 -31.2801 102.342 -23.153C103.435 -20.965 103.396 -20.6524 101.873 -20.6524C98.6327 -20.6915 95.3142 -23.6219 87.2717 -33.7416C83.8361 -38.0396 80.0491 -42.5719 78.8389 -43.8613C76.3793 -46.401 76.7306 -46.4792 80.9471 -44.3693Z" fill="black"/>
</svg>
