<svg width="30" height="30" viewBox="0 0 30 30" fill="none" xmlns="http://www.w3.org/2000/svg">
<path d="M23.3437 11.0881L11.6981 4.40934C11.0679 4.04545 10.3527 3.85483 9.62498 3.85683C8.8973 3.85883 8.18312 4.05338 7.55496 4.42072C6.92681 4.78806 6.40707 5.31511 6.04852 5.94832C5.68998 6.58154 5.50541 7.29837 5.51356 8.026V21.4318C5.51356 22.5253 5.94795 23.574 6.72116 24.3472C7.49438 25.1204 8.54308 25.5548 9.63656 25.5548C10.3604 25.5536 11.0713 25.3623 11.6981 25.0002L23.3437 18.3214C23.9695 17.9593 24.489 17.4389 24.8502 16.8126C25.2113 16.1863 25.4015 15.476 25.4015 14.753C25.4015 14.03 25.2113 13.3197 24.8502 12.6934C24.489 12.0671 23.9695 11.5467 23.3437 11.1846V11.0881ZM22.1382 16.1394L10.4925 22.9146C10.2315 23.0625 9.93659 23.1403 9.63656 23.1403C9.33654 23.1403 9.04164 23.0625 8.78062 22.9146C8.52034 22.7643 8.3042 22.5482 8.15395 22.2879C8.0037 22.0276 7.92462 21.7323 7.92468 21.4318V7.97778C7.92462 7.67723 8.0037 7.38197 8.15395 7.12167C8.3042 6.86137 8.52034 6.64522 8.78062 6.49495C9.04271 6.34926 9.33674 6.27058 9.63656 6.26589C9.93618 6.27204 10.2299 6.35063 10.4925 6.49495L22.1382 13.2219C22.3986 13.3722 22.6148 13.5883 22.7651 13.8486C22.9155 14.1089 22.9946 14.4042 22.9946 14.7048C22.9946 15.0054 22.9155 15.3007 22.7651 15.561C22.6148 15.8213 22.3986 16.0374 22.1382 16.1876V16.1394Z" fill="#222222"/>
</svg>
