<svg width="26" height="19" viewBox="0 0 26 19" fill="none" xmlns="http://www.w3.org/2000/svg">
<path d="M24.9676 16.393L18.7176 6.39299C18.6055 6.2121 18.449 6.06283 18.2631 5.95932C18.0772 5.8558 17.8679 5.80147 17.6551 5.80147C17.4423 5.80147 17.233 5.8558 17.0471 5.95932C16.8611 6.06283 16.7047 6.2121 16.5926 6.39299L15.3426 8.43049L11.2301 1.43049C11.1194 1.24396 10.9621 1.08944 10.7736 0.98212C10.5851 0.874795 10.372 0.818359 10.1551 0.818359C9.93819 0.818359 9.72503 0.874795 9.53655 0.98212C9.34807 1.08944 9.19076 1.24396 9.08008 1.43049L0.330079 16.4305C0.220682 16.62 0.162932 16.8348 0.162599 17.0536C0.162267 17.2724 0.219364 17.4874 0.328185 17.6772C0.437005 17.867 0.593737 18.025 0.782715 18.1352C0.971693 18.2455 1.1863 18.3042 1.40508 18.3055H23.9051C24.1284 18.3059 24.3478 18.2465 24.5404 18.1335C24.733 18.0204 24.8918 17.8578 25.0003 17.6625C25.1087 17.4673 25.1629 17.2466 25.1572 17.0233C25.1514 16.8 25.086 16.5824 24.9676 16.393ZM10.7176 15.8055H3.58008L10.1551 4.55549L13.8176 10.8055L10.7176 15.8055ZM13.6551 15.8055L16.4051 11.518L17.6551 9.41799L21.6551 15.8055H13.6551Z" fill="#222222"/>
</svg>
