<svg width="20" height="20" viewBox="0 0 20 20" fill="none" xmlns="http://www.w3.org/2000/svg">
<path d="M2.49999 6.66667H17.5C17.721 6.66667 17.933 6.57887 18.0892 6.42259C18.2455 6.26631 18.3333 6.05435 18.3333 5.83333C18.3333 5.61232 18.2455 5.40036 18.0892 5.24408C17.933 5.0878 17.721 5 17.5 5H2.49999C2.27898 5 2.06701 5.0878 1.91073 5.24408C1.75445 5.40036 1.66666 5.61232 1.66666 5.83333C1.66666 6.05435 1.75445 6.26631 1.91073 6.42259C2.06701 6.57887 2.27898 6.66667 2.49999 6.66667V6.66667ZM17.5 13.3333H2.49999C2.27898 13.3333 2.06701 13.4211 1.91073 13.5774C1.75445 13.7337 1.66666 13.9457 1.66666 14.1667C1.66666 14.3877 1.75445 14.5996 1.91073 14.7559C2.06701 14.9122 2.27898 15 2.49999 15H17.5C17.721 15 17.933 14.9122 18.0892 14.7559C18.2455 14.5996 18.3333 14.3877 18.3333 14.1667C18.3333 13.9457 18.2455 13.7337 18.0892 13.5774C17.933 13.4211 17.721 13.3333 17.5 13.3333ZM17.5 9.16667H2.49999C2.27898 9.16667 2.06701 9.25446 1.91073 9.41074C1.75445 9.56702 1.66666 9.77899 1.66666 10C1.66666 10.221 1.75445 10.433 1.91073 10.5893C2.06701 10.7455 2.27898 10.8333 2.49999 10.8333H17.5C17.721 10.8333 17.933 10.7455 18.0892 10.5893C18.2455 10.433 18.3333 10.221 18.3333 10C18.3333 9.77899 18.2455 9.56702 18.0892 9.41074C17.933 9.25446 17.721 9.16667 17.5 9.16667Z" fill="#222222"/>
</svg>
