<svg width="31" height="31" viewBox="0 0 31 31" fill="none" xmlns="http://www.w3.org/2000/svg">
<path d="M22.6716 6.46378C20.6825 4.47466 17.9846 3.35718 15.1716 3.35718C12.3585 3.35718 9.6607 4.47466 7.67157 6.46378C5.68245 8.4529 4.56497 11.1507 4.56497 13.9638C4.56497 16.7768 5.68245 19.4747 7.67157 21.4638L14.2591 28.0638C14.3753 28.1809 14.5135 28.2739 14.6659 28.3374C14.8182 28.4009 14.9816 28.4335 15.1466 28.4335C15.3116 28.4335 15.475 28.4009 15.6273 28.3374C15.7796 28.2739 15.9179 28.1809 16.0341 28.0638L22.6716 21.4013C24.6524 19.4204 25.7652 16.7338 25.7652 13.9325C25.7652 11.1312 24.6524 8.44463 22.6716 6.46378ZM20.8841 19.6138L15.1716 25.3513L9.45907 19.6138C8.3305 18.4842 7.56217 17.0453 7.25119 15.4791C6.94022 13.9129 7.10056 12.2897 7.71195 10.8146C8.32335 9.33955 9.35835 8.07884 10.6861 7.19188C12.0139 6.30491 13.5748 5.83151 15.1716 5.83151C16.7683 5.83151 18.3293 6.30491 19.657 7.19188C20.9848 8.07884 22.0198 9.33955 22.6312 10.8146C23.2426 12.2897 23.4029 13.9129 23.092 15.4791C22.781 17.0453 22.0126 18.4842 20.8841 19.6138ZM11.4216 10.1263C10.4125 11.1385 9.84582 12.5095 9.84582 13.9388C9.84582 15.3681 10.4125 16.7391 11.4216 17.7513C12.1713 18.5023 13.1261 19.0151 14.1661 19.2255C15.2062 19.4359 16.2853 19.3345 17.2679 18.934C18.2506 18.5334 19.0931 17.8516 19.6897 16.9741C20.2863 16.0966 20.6105 15.0624 20.6216 14.0013C20.6272 13.2928 20.4907 12.5904 20.2202 11.9355C19.9497 11.2807 19.5506 10.6867 19.0466 10.1888C18.5512 9.682 17.9604 9.2782 17.3084 9.00061C16.6563 8.72302 15.9558 8.57712 15.2471 8.57132C14.5384 8.56551 13.8356 8.6999 13.179 8.96676C12.5225 9.23363 11.9252 9.62769 11.4216 10.1263ZM17.2841 15.9763C16.8104 16.4572 16.1843 16.7587 15.513 16.8291C14.8416 16.8995 14.1667 16.7346 13.6035 16.3624C13.0403 15.9903 12.6238 15.4341 12.4253 14.7889C12.2268 14.1437 12.2586 13.4496 12.5153 12.8252C12.7719 12.2009 13.2374 11.685 13.8323 11.3659C14.4272 11.0469 15.1144 10.9443 15.7765 11.0758C16.4386 11.2073 17.0345 11.5647 17.4622 12.0869C17.89 12.6092 18.123 13.2637 18.1216 13.9388C18.1034 14.7104 17.7797 15.4432 17.2216 15.9763H17.2841Z" fill="#222222"/>
</svg>
