<svg width="119" height="119" viewBox="0 0 119 119" fill="none" xmlns="http://www.w3.org/2000/svg">
<path d="M50.9699 0.622304C37.9788 2.59223 27.5858 7.67465 18.4133 16.5787C8.25659 26.3496 2.58772 37.4206 0.619364 51.3677C-0.404181 58.617 0.0682245 66.4179 1.99721 74.1401C4.39861 83.5957 9.47697 92.4998 16.7599 100.064C26.3655 109.993 37.5064 115.666 51.3242 117.636C63.528 119.37 76.7948 116.848 87.9357 110.623C89.5497 109.678 100.808 101.563 101.162 100.853C102.697 97.9379 96.5674 97.3123 93.3787 96.8789C91.9615 96.6819 85.8098 101.443 82.4243 103.177C74.3146 107.314 67.9765 108.85 59.0796 108.811C55.4578 108.811 52.1509 108.574 50.0251 108.18C40.3014 106.289 31.7981 101.877 24.6727 94.9819C20.5785 91.0421 18.4527 88.3236 15.6576 83.4775C14.0436 80.6408 13.8074 79.9711 13.8074 78.0011C13.8074 72.6035 16.5237 69.3334 20.9722 69.3728C25.8931 69.4516 31.6013 73.6279 38.6086 82.3744C44.9074 90.1753 50.9306 95.5729 58.0954 99.6704C60.8117 101.207 61.9927 101.68 63.2918 101.68C65.5751 101.68 67.3073 100.143 67.6222 97.8974C67.9372 95.6123 66.9923 94.0364 64.5516 92.815C58.804 89.8601 52.584 84.7777 47.7812 78.9467C41.0494 70.8306 39.3566 69.0183 36.4041 66.6149C31.0108 62.2811 26.0505 60.3112 20.6572 60.3112C16.9174 60.3112 14.1223 61.1779 11.4453 63.1085C10.5399 63.7782 9.71317 64.251 9.63444 64.1328C9.51634 64.054 9.4376 62.3599 9.4376 60.4294C9.3195 47.6248 19.3188 38.4055 30.3415 41.1635C38.2937 43.1334 46.2459 49.5948 53.7256 60.1142C56.1664 63.5419 57.5049 64.645 59.1977 64.645C62.7407 64.645 64.8665 60.9021 63.1344 57.6321C61.6384 54.8742 57.1506 49.2796 53.1745 45.1821C46.8364 38.6419 40.8919 34.7415 34.2783 32.6928C31.1289 31.7472 24.712 31.432 20.6966 32.0624L18.7282 32.3382L21.3658 29.8561C23.098 28.2013 25.1451 26.783 27.2709 25.7192C34.5932 22.0551 39.6322 21.9763 46.5608 25.4828C54.0012 29.2257 59.9456 34.8597 68.5277 46.3247C78.4088 59.5232 83.8808 64.1722 92.0692 66.2604C96.0059 67.2453 101.242 67.2453 105.139 66.221C108.84 65.236 108.682 65.236 108.328 66.5361C106.359 73.3521 99.5883 78.3951 92.3448 78.4345C87.4632 78.4345 83.3691 77.0162 77.7789 73.3521C75.0232 71.5398 74.4327 71.3034 73.1336 71.461C70.1417 71.855 68.2915 75.0068 69.4331 77.7253C70.496 80.2863 78.4875 84.9747 84.7469 86.7082C88.1719 87.6538 97.9733 88.5152 101.162 87.6879C103.249 87.1757 85.0809 102.84 93.3787 96.8789C92.1583 99.164 96.0092 102.261 98.8436 102.261C101.284 102.261 107.54 92.9726 109.588 89.5449C116.477 77.8829 119.351 64.1722 117.54 51.3677C116.083 41.1241 112.343 31.826 106.556 24.0645C103.289 19.6912 96.3602 13.0329 92.1479 10.2356C85.3374 5.70472 77.2278 2.35584 69.7087 1.01629C64.6303 0.11012 55.4971 -0.086871 50.9699 0.622304ZM59.0796 11.8115C63.3706 13.1511 66.4018 15.2392 71.3227 20.1246C73.8029 22.6067 78.3301 27.8467 81.4007 31.7472C84.432 35.6476 88.2112 40.0603 89.8253 41.5968C94.7068 46.2065 99.1947 48.0188 104.549 47.5854L107.422 47.3096L107.816 49.0038C108.052 49.9099 108.328 51.6435 108.485 52.8648L108.761 55.0712L106.635 55.9773C101.911 58.026 98.4073 58.42 94.3131 57.3563C90.8882 56.4501 88.4474 54.953 84.9044 51.6041C81.6763 48.531 80.4165 46.9944 73.9603 38.248C68.2915 30.5652 61.3235 23.7493 54.9066 19.6518C50.655 16.9333 44.5531 14.4512 40.8919 13.9784C39.829 13.8208 39.081 13.5844 39.2779 13.4268C39.4354 13.2299 41.7186 12.5601 44.3169 11.8903C48.4111 10.8265 49.5527 10.6689 52.7808 10.8265C55.0641 10.9053 57.5049 11.2993 59.0796 11.8115ZM81.7156 14.727C90.0615 18.9032 99.1553 27.9255 103.289 36.1204C104.391 38.3268 104.352 38.6419 102.816 38.6419C99.549 38.6025 96.2027 35.6477 88.0931 25.4434C84.6288 21.1096 80.8102 16.5393 79.5898 15.2392C77.1097 12.6783 77.464 12.5995 81.7156 14.727Z" fill="#F2F2F2"/>
</svg>
