<svg width="31" height="31" viewBox="0 0 31 31" fill="none" xmlns="http://www.w3.org/2000/svg">
<path d="M26.7657 6.46876L19.2657 3.96876H19.1782C19.12 3.96291 19.0614 3.96291 19.0032 3.96876H18.7157H18.5532H18.4657L11.3657 6.40626L4.26573 3.96876C4.07775 3.90677 3.87773 3.89031 3.68215 3.92074C3.48656 3.95116 3.301 4.0276 3.14073 4.14376C2.97917 4.25878 2.84731 4.41059 2.75602 4.58664C2.66473 4.7627 2.61664 4.95794 2.61573 5.15626V22.6563C2.61505 22.9183 2.69675 23.174 2.84928 23.387C3.00181 23.6001 3.21745 23.7599 3.46573 23.8438L10.9657 26.3438C11.2175 26.4259 11.4889 26.4259 11.7407 26.3438L18.8657 23.9688L25.9657 26.4063C26.0985 26.4243 26.233 26.4243 26.3657 26.4063C26.6271 26.4099 26.8822 26.3264 27.0907 26.1688C27.2523 26.0537 27.3841 25.9019 27.4754 25.7259C27.5667 25.5498 27.6148 25.3546 27.6157 25.1563V7.65626C27.6164 7.3942 27.5347 7.13856 27.3822 6.92547C27.2296 6.71238 27.014 6.55261 26.7657 6.46876ZM10.1157 23.4188L5.11573 21.7563V6.89376L10.1157 8.55626V23.4188ZM17.6157 21.7563L12.6157 23.4188V8.55626L17.6157 6.89376V21.7563ZM25.1157 23.4188L20.1157 21.7563V6.89376L25.1157 8.55626V23.4188Z" fill="#222222"/>
</svg>
