<svg width="31" height="31" viewBox="0 0 31 31" fill="none" xmlns="http://www.w3.org/2000/svg">
<path d="M15.6737 16.165C16.3406 15.5877 16.8756 14.8736 17.2423 14.0713C17.6089 13.269 17.7987 12.3972 17.7987 11.515C17.7987 9.85741 17.1402 8.2677 15.9681 7.0956C14.796 5.9235 13.2063 5.26501 11.5487 5.26501C9.89107 5.26501 8.30136 5.9235 7.12926 7.0956C5.95716 8.2677 5.29868 9.85741 5.29868 11.515C5.29867 12.3972 5.48843 13.269 5.85508 14.0713C6.22174 14.8736 6.7567 15.5877 7.42368 16.165C5.67385 16.9574 4.18926 18.2369 3.1474 19.8507C2.10554 21.4645 1.55052 23.3442 1.54868 25.265C1.54868 25.5965 1.68037 25.9145 1.91479 26.1489C2.14921 26.3833 2.46715 26.515 2.79868 26.515C3.1302 26.515 3.44814 26.3833 3.68256 26.1489C3.91698 25.9145 4.04868 25.5965 4.04868 25.265C4.04868 23.2759 4.83885 21.3682 6.24537 19.9617C7.6519 18.5552 9.55955 17.765 11.5487 17.765C13.5378 17.765 15.4455 18.5552 16.852 19.9617C18.2585 21.3682 19.0487 23.2759 19.0487 25.265C19.0487 25.5965 19.1804 25.9145 19.4148 26.1489C19.6492 26.3833 19.9672 26.515 20.2987 26.515C20.6302 26.515 20.9481 26.3833 21.1826 26.1489C21.417 25.9145 21.5487 25.5965 21.5487 25.265C21.5468 23.3442 20.9918 21.4645 19.95 19.8507C18.9081 18.2369 17.4235 16.9574 15.6737 16.165ZM11.5487 15.265C10.807 15.265 10.082 15.0451 9.46529 14.633C8.8486 14.221 8.36796 13.6353 8.08413 12.9501C7.8003 12.2649 7.72604 11.5109 7.87073 10.7834C8.01543 10.056 8.37258 9.38781 8.89703 8.86336C9.42147 8.33892 10.0897 7.98176 10.8171 7.83707C11.5445 7.69238 12.2985 7.76664 12.9837 8.05047C13.669 8.3343 14.2546 8.81494 14.6667 9.43163C15.0787 10.0483 15.2987 10.7733 15.2987 11.515C15.2987 12.5096 14.9036 13.4634 14.2003 14.1667C13.4971 14.8699 12.5432 15.265 11.5487 15.265ZM23.7237 15.665C24.5236 14.7642 25.0462 13.6513 25.2284 12.4604C25.4107 11.2695 25.2448 10.0514 24.7509 8.95251C24.2569 7.85367 23.4559 6.92101 22.4443 6.26679C21.4326 5.61258 20.2534 5.26469 19.0487 5.26501C18.7172 5.26501 18.3992 5.39671 18.1648 5.63113C17.9304 5.86555 17.7987 6.18349 17.7987 6.51501C17.7987 6.84654 17.9304 7.16448 18.1648 7.3989C18.3992 7.63332 18.7172 7.76501 19.0487 7.76501C20.0432 7.76501 20.9971 8.1601 21.7003 8.86336C22.4036 9.56663 22.7987 10.5205 22.7987 11.515C22.7969 12.1716 22.6228 12.8161 22.2938 13.3843C21.9647 13.9524 21.4923 14.4242 20.9237 14.7525C20.7383 14.8594 20.5836 15.0121 20.4741 15.1959C20.3647 15.3798 20.3043 15.5886 20.2987 15.8025C20.2934 16.0147 20.3423 16.2248 20.4408 16.4128C20.5392 16.6009 20.6839 16.7608 20.8612 16.8775L21.3487 17.2025L21.5112 17.29C23.0179 18.0047 24.2891 19.135 25.1749 20.5479C26.0607 21.9608 26.5244 23.5974 26.5112 25.265C26.5112 25.5965 26.6429 25.9145 26.8773 26.1489C27.1117 26.3833 27.4297 26.515 27.7612 26.515C28.0927 26.515 28.4106 26.3833 28.6451 26.1489C28.8795 25.9145 29.0112 25.5965 29.0112 25.265C29.0214 23.3468 28.541 21.4578 27.6155 19.7776C26.6901 18.0974 25.3504 16.6817 23.7237 15.665Z" fill="#222222"/>
</svg>
