<svg width="30" height="31" viewBox="0 0 30 31" fill="none" xmlns="http://www.w3.org/2000/svg">
<path d="M14.1124 19.8805C14.0586 19.9399 14.0085 20.0025 13.9624 20.068C13.9151 20.1377 13.8772 20.2134 13.8499 20.293C13.8138 20.3639 13.7886 20.4397 13.7749 20.518C13.7687 20.6012 13.7687 20.6848 13.7749 20.768C13.7707 20.932 13.8049 21.0947 13.8749 21.243C13.931 21.3981 14.0206 21.539 14.1372 21.6556C14.2539 21.7723 14.3948 21.8619 14.5499 21.918C14.6995 21.9841 14.8613 22.0183 15.0249 22.0183C15.1885 22.0183 15.3503 21.9841 15.4999 21.918C15.655 21.8619 15.7959 21.7723 15.9125 21.6556C16.0292 21.539 16.1187 21.3981 16.1749 21.243C16.2304 21.091 16.2559 20.9297 16.2499 20.768C16.2508 20.6035 16.2193 20.4404 16.1571 20.2881C16.0949 20.1358 16.0032 19.9973 15.8874 19.8805C15.7712 19.7633 15.6329 19.6704 15.4806 19.6069C15.3283 19.5434 15.1649 19.5108 14.9999 19.5108C14.8349 19.5108 14.6715 19.5434 14.5192 19.6069C14.3668 19.6704 14.2286 19.7633 14.1124 19.8805ZM14.9999 3.26801C12.5276 3.26801 10.1109 4.00112 8.05526 5.37464C5.99964 6.74815 4.39748 8.70039 3.45139 10.9845C2.50529 13.2685 2.25775 15.7819 2.74007 18.2066C3.22238 20.6314 4.41289 22.8587 6.16105 24.6068C7.90921 26.355 10.1365 27.5455 12.5613 28.0278C14.986 28.5101 17.4994 28.2626 19.7834 27.3165C22.0675 26.3704 24.0197 24.7682 25.3933 22.7126C26.7668 20.657 27.4999 18.2403 27.4999 15.768C27.4999 14.1265 27.1766 12.501 26.5484 10.9845C25.9202 9.46789 24.9995 8.0899 23.8387 6.92917C22.678 5.76844 21.3 4.8477 19.7834 4.21951C18.2669 3.59133 16.6414 3.26801 14.9999 3.26801ZM14.9999 25.768C13.0221 25.768 11.0887 25.1815 9.44418 24.0827C7.79969 22.9839 6.51796 21.4221 5.76109 19.5948C5.00421 17.7676 4.80618 15.7569 5.19203 13.8171C5.57788 11.8773 6.53029 10.0955 7.92882 8.69694C9.32734 7.29841 11.1092 6.346 13.049 5.96015C14.9888 5.5743 16.9995 5.77233 18.8267 6.52921C20.654 7.28609 22.2158 8.56781 23.3146 10.2123C24.4134 11.8568 24.9999 13.7902 24.9999 15.768C24.9999 18.4202 23.9463 20.9637 22.071 22.8391C20.1956 24.7144 17.652 25.768 14.9999 25.768ZM14.9999 9.51801C14.3412 9.51758 13.6941 9.69066 13.1235 10.0198C12.553 10.349 12.0792 10.8226 11.7499 11.393C11.6594 11.5353 11.5987 11.6944 11.5714 11.8607C11.544 12.0271 11.5506 12.1972 11.5907 12.361C11.6308 12.5247 11.7036 12.6787 11.8047 12.8135C11.9059 12.9484 12.0333 13.0614 12.1792 13.1458C12.3252 13.2302 12.4867 13.2842 12.654 13.3045C12.8214 13.3248 12.9911 13.3111 13.1531 13.2641C13.315 13.2171 13.4657 13.1379 13.5962 13.0312C13.7267 12.9244 13.8342 12.7924 13.9124 12.643C14.0225 12.4522 14.1811 12.294 14.3721 12.1842C14.563 12.0745 14.7796 12.0171 14.9999 12.018C15.3314 12.018 15.6493 12.1497 15.8838 12.3841C16.1182 12.6185 16.2499 12.9365 16.2499 13.268C16.2499 13.5995 16.1182 13.9175 15.8838 14.1519C15.6493 14.3863 15.3314 14.518 14.9999 14.518C14.6684 14.518 14.3504 14.6497 14.116 14.8841C13.8816 15.1185 13.7499 15.4365 13.7499 15.768V17.018C13.7499 17.3495 13.8816 17.6675 14.116 17.9019C14.3504 18.1363 14.6684 18.268 14.9999 18.268C15.3314 18.268 15.6493 18.1363 15.8838 17.9019C16.1182 17.6675 16.2499 17.3495 16.2499 17.018V16.793C17.0766 16.493 17.7716 15.912 18.2133 15.1516C18.6551 14.3911 18.8156 13.4996 18.6666 12.6329C18.5177 11.7661 18.0689 10.9793 17.3986 10.4099C16.7284 9.84052 15.8793 9.52483 14.9999 9.51801Z" fill="#222222"/>
</svg>
