<svg width="19" height="18" viewBox="0 0 19 18" fill="none" xmlns="http://www.w3.org/2000/svg">
<path d="M18.4405 16.4825L15.1034 13.17C16.3988 11.5537 17.026 9.50215 16.8563 7.43721C16.6866 5.37227 15.7328 3.45088 14.1909 2.06813C12.6491 0.685379 10.6365 -0.0536394 8.56695 0.00303437C6.49739 0.0597081 4.52817 0.907766 3.06422 2.37283C1.60027 3.83789 0.752854 5.8086 0.696224 7.87974C0.639593 9.95088 1.37805 11.965 2.75975 13.508C4.14146 15.051 6.06138 16.0056 8.12475 16.1754C10.1881 16.3453 12.2381 15.7175 13.8532 14.4212L17.1632 17.7337C17.2468 17.8181 17.3463 17.8851 17.4559 17.9308C17.5655 17.9765 17.6831 18 17.8018 18C17.9206 18 18.0381 17.9765 18.1477 17.9308C18.2574 17.8851 18.3568 17.8181 18.4405 17.7337C18.6026 17.5659 18.6932 17.3416 18.6932 17.1081C18.6932 16.8747 18.6026 16.6504 18.4405 16.4825ZM8.80718 14.4212C7.5619 14.4212 6.34458 14.0516 5.30917 13.3593C4.27375 12.6669 3.46674 11.6828 2.9902 10.5315C2.51365 9.38009 2.38896 8.11316 2.6319 6.89088C2.87484 5.6686 3.47451 4.54586 4.35505 3.66464C5.2356 2.78343 6.35749 2.18331 7.57884 1.94018C8.80019 1.69706 10.0662 1.82184 11.2167 2.29875C12.3671 2.77566 13.3505 3.58328 14.0423 4.61948C14.7342 5.65568 15.1034 6.87392 15.1034 8.12015C15.1034 9.79129 14.4401 11.394 13.2593 12.5757C12.0785 13.7573 10.477 14.4212 8.80718 14.4212Z" fill="#222222"/>
</svg>
